<?xml version="1.0" encoding="utf-8"?>
<!-- Generator: Adobe Illustrator 23.0.3, SVG Export Plug-In . SVG Version: 6.00 Build 0)  -->
<svg version="1.1" id="Слой_1" xmlns="http://www.w3.org/2000/svg" xmlns:xlink="http://www.w3.org/1999/xlink" x="0px" y="0px"
	 viewBox="0 0 1200 750" style="enable-background:new 0 0 1200 750;" xml:space="preserve">
<style type="text/css">
	.st0{fill:#FFFFFF;}
	.st1{clip-path:url(#SVGID_2_);}
</style>
<g id="bg">
	<rect class="st0" width="1200" height="750"/>
</g>
<g id="graphic">
	<g>
		<g>
			<defs>
				<rect id="SVGID_1_" width="1200" height="750"/>
			</defs>
			<clipPath id="SVGID_2_">
				<use xlink:href="#SVGID_1_"  style="overflow:visible;"/>
			</clipPath>
			<g class="st1">
				<g>
					<path d="M432.9-9.2C362.6-9.1,277.2-9,193.7-9.1c-29.1-0.1-59.3-0.1-89.2-0.2 M-156.9-14.1c3.9,2.2,85.8,3.7,233.9,4.4
						c-23.9-0.5-47.7-1-71.4-1.4C-47.8-12.2-103-13.3-156.9-14.1z"/>
				</g>
				<g>
					<path d="M1062,233.6c-6.4,0-13-0.6-19.7-1.7c-17.8-3-36-9.5-54.1-19.4c-16.2-8.8-31.9-20.2-46.8-33.6
						c-7.6-6.9-14.6-15.6-21.4-24c-6.7-8.3-13.5-16.8-21.2-23.9c-14.1-7.5-27.3-12.1-40.2-13.9c-10.7-1.5-22-1.1-33.5,0.6
						c-24.7,7-51.2,20.9-77.1,34.5c-28.5,15-55.4,29.1-79.2,34.1c-63.8,13.4-133.6,13.3-191.5-0.3c-4.5-1.1-9-2.1-13.5-3.2
						c-33.2-7.9-64.5-15.3-96.8-19c-17.3-2-33.2-2.7-48.6-2.2c-17.2,0.6-33.4,2.7-49.4,6.5c-15.4,3.6-31.4,8.5-48.3,13.7
						c-30.5,9.3-62,19-93,22c-16.8,1.7-31.7,1.2-45.6-1.3c-15.5-2.8-29.9-8.4-42.7-16.7c-11.1-7.2-19.6-15.6-27.9-23.8
						c-8.2-8.2-16-15.9-25.5-21.4c-10.7-6.2-22.2-8.8-36.1-8.2c-10.7,0.5-23.5,6.4-37.1,12.8c-21.7,10.1-44.1,20.6-59.8,8.8
						l-0.1-0.1l0.2-0.1c40-15.2,73-25.3,104.1-25.5c16,0,31.2,2.5,46.4,7.8c15.8,5.5,31.9,13.9,49.3,25.8
						c14.8,10.1,30,17.1,46.7,21.3c14.8,3.7,30.4,5.2,47.7,4.4c32.1-1.5,65.4-10.7,97.6-19.6c12-3.3,24.4-6.8,36.6-9.8
						c48.2-11.9,91.4-4.4,137.1,3.5c11.8,2,24.1,4.2,36.6,6c34.3,5,69.8,7.3,105.5,7c35.6-0.3,71.4-3.3,106.5-8.8
						c24-3.8,50.6-13.9,76.4-23.7c27.3-10.4,55.3-21,81.6-24.9c15.8-4.5,30.9-6.1,44.7-3.1c11.4,2.5,20.8,8.7,29.2,16.4
						c1.9,1,3.9,2.1,5.8,3.3c14.6,8.5,28.9,19.2,42.7,29.7c30.8,23.3,62.7,47.3,102.9,50.9c53.3,4.7,96.9-28.3,139-60.3
						c19.6-14.8,39.8-30.2,60.4-41.1c14.9-7.9,37.6-18.2,61.3-22.9c22.8-4.5,40.9-2.7,53.8,5.5c16.1,10.2,23.6,30.3,22.2,59.7v0.6
						l-0.2-0.6c-4.6-15.7-10.9-28.4-18.8-38c-7.3-8.9-16.1-15.1-26.1-18.6c-16.2-5.7-36.1-4.3-59.1,3.9c-19,6.8-40.4,18.5-63.3,34.6
						c-15.5,10.9-29.9,23.8-43.9,36.3c-19.6,17.6-38.2,34.2-59.5,45.6c-11.5,6.2-22.6,10.2-34.1,12.4
						C1075.4,233,1068.8,233.6,1062,233.6z M899.6,131.4c7.4,7,14.1,15.3,20.7,23.4c6.8,8.4,13.8,17.1,21.4,24
						c14.9,13.5,30.6,24.8,46.7,33.6c18.1,9.9,36.2,16.4,54,19.4c13.8,2.3,26.8,2.3,39.6-0.2c11.5-2.2,22.6-6.2,34.1-12.4
						c21.3-11.4,39.8-28,59.5-45.6c14-12.5,28.4-25.4,43.9-36.3c23-16.1,44.3-27.8,63.4-34.6c23.1-8.3,43-9.6,59.2-3.9
						c10.1,3.5,18.9,9.8,26.2,18.7c7.8,9.4,14,22,18.6,37.5c1.3-29-6.2-48.8-22.1-58.9c-12.8-8.2-30.9-10-53.6-5.4
						c-23.6,4.7-46.3,15.1-61.2,22.9c-20.5,10.8-40.8,26.2-60.4,41c-39.4,29.9-80.2,60.8-128.9,60.8c-3.4,0-6.8-0.1-10.2-0.5
						c-40.2-3.6-72.1-27.6-103-50.9c-13.8-10.4-28.1-21.2-42.6-29.7C903,133.3,901.3,132.3,899.6,131.4z M-46.4,132.2
						c12.3,0,22.7,2.7,32.4,8.3c9.6,5.6,17.4,13.3,25.6,21.5s16.7,16.6,27.8,23.8c12.8,8.2,27.1,13.8,42.7,16.6
						c13.9,2.5,28.8,2.9,45.6,1.3c31-3.1,62.5-12.7,92.9-22c17-5.2,33-10.1,48.3-13.7c16-3.8,32.2-5.9,49.4-6.5
						c15.4-0.5,31.3,0.2,48.6,2.2c32.2,3.7,63.6,11.1,96.8,19c4.5,1.1,9,2.1,13.5,3.2c57.9,13.6,127.6,13.7,191.4,0.3
						c23.8-5,50.7-19.1,79.2-34.1c25.4-13.4,51.4-27,75.7-34.1c-25.8,4-53.3,14.5-80.1,24.6c-25.8,9.8-52.4,19.9-76.4,23.7
						c-35,5.5-70.9,8.5-106.5,8.8c-35.7,0.3-71.2-2.1-105.6-7.1c-12.5-1.8-24.8-3.9-36.6-6c-45.7-7.9-88.8-15.4-137-3.5
						c-12.2,3-24.6,6.4-36.6,9.8c-32.2,8.9-65.5,18.1-97.6,19.6c-17.3,0.8-32.9-0.6-47.7-4.4c-16.6-4.2-31.9-11.2-46.7-21.3
						c-17.3-11.9-33.4-20.4-49.2-25.8c-15.3-5.3-30.4-7.8-46.4-7.8c-31,0.1-64,10.2-103.9,25.4c15.6,11.5,37.9,1.1,59.4-8.9
						c13.6-6.3,26.4-12.3,37.2-12.8C-48.9,132.3-47.6,132.2-46.4,132.2z M844.7,116c4.7,0,9.4,0.3,14,0.9
						c12.8,1.8,25.8,6.3,39.6,13.6c-8.2-7.5-17.5-13.4-28.6-15.9c-13.3-2.9-27.9-1.5-43.1,2.7C832.8,116.4,838.8,116,844.7,116z"/>
				</g>
				<g>
					<path d="M18.7,323.1c-14.4,0-28.5-3.8-42.7-11.5c-16.6-9-31.3-22.1-45.5-34.8c-25.9-23-50.3-44.8-81.5-37.6l-0.2,0.1l0.1-0.2
						c4.1-7.2,17-6.5,39.6,2.2c19.8,7.7,43.9,20.2,67.3,32.3c30.1,15.6,58.6,30.4,70.7,30.7c14.7,0.4,30.3-3.3,48.8-11.5
						c16.4-7.3,32.5-16.9,49.6-27.1c28.2-16.9,57.4-34.3,87.4-39.8c34-6.2,65.7-4.8,99.6,4.6c30.6,8.4,60.2,22.5,91.6,37.3
						c2.9,1.4,5.9,2.8,8.9,4.2c21.3,10.1,38.2,13.4,53.1,10.4c13.7-2.7,24.6-10.3,37.3-19.1c14.2-9.8,30.2-20.9,54.2-28.1
						c23.1-6.9,46.3-3.7,70.9-0.4c17.9,2.4,36.3,4.9,54.8,3.2c15.2-1.4,30.2-5.3,44.8-9c12.9-3.3,26.3-6.7,39.6-8.4
						c29.4-3.7,47.5,2.9,70.4,11.2c9.3,3.4,19,6.9,30.6,10.2c33.1,9.4,68.8,14.1,103.2,18.6c12.4,1.6,25.2,3.3,37.6,5.2
						c11.7,1.8,25.6,5.3,40.3,9c29.6,7.6,63.2,16.1,86.2,11.4c9.2-1.9,17.7-6,26.1-12.7c7.5-6,14.2-13.4,20.7-20.7
						c6.8-7.6,13.8-15.4,21.9-21.8c13.5-10.7,30.3-18.7,47.2-22.6c17.9-4.2,34.9-3.5,49.1,1.8c20.7,7.8,34.1,25.1,38.8,50.2v0.1
						h-0.1c-17.9,3.6-35.1-3.2-51.8-9.7c-15-5.9-29.1-11.4-43.6-10c-20.9,1.9-31.2,11.3-43,22.1c-6,5.5-12.3,11.2-20.6,16.8
						c-21.1,14.2-48.8,20.5-84.8,19.4c-31.5-1-64.1-7.3-95.7-13.4c-18.7-3.6-36.4-7-52.4-9c-26.9-3.3-53.6-9.6-79.4-15.6
						c-24.6-5.7-50-11.7-75-14.9c-27.9-3.6-52.6-3.5-75.4,0.5c-25.8,4.5-53.1,1.1-79.4-2.2c-19.3-2.4-39.4-5-58-4.1
						c-10,0.5-19,1.8-27.3,4.2c-9.3,2.6-17.6,6.4-25.5,11.6c-8.6,5.7-16.2,11.3-23.5,16.7c-15.3,11.4-28.6,21.2-44.4,26.2
						c-17.1,5.4-36,4.6-59.3-2.7c-23.8-7.5-44.3-19.5-64.2-31.2c-34.9-20.5-67.8-39.9-114.8-33.3c-37.6,5.3-68.2,26.1-97.9,46.2
						c-13.9,9.4-28.4,19.2-43.1,27.1c-16.6,8.8-32,14.3-47.1,16.9C28.1,322.7,23.4,323.1,18.7,323.1z M-138.9,237.5
						c25.7,0,47.1,19.1,69.5,39.1c14.2,12.7,28.9,25.8,45.5,34.8c18.7,10.2,37.3,13.6,56.7,10.3c15.1-2.5,30.5-8,47-16.8
						c14.8-7.9,29.2-17.6,43.1-27.1c29.7-20.1,60.3-40.9,98-46.2c47.1-6.7,80,12.7,114.9,33.3c19.8,11.7,40.3,23.7,64.1,31.2
						c50.4,15.8,72.7-0.6,103.4-23.4c7.3-5.4,14.9-11,23.5-16.7c7.8-5.2,16.2-9,25.5-11.6c8.3-2.3,17.3-3.7,27.3-4.2
						c18.7-0.8,38.7,1.7,58.1,4.1c26.3,3.3,53.6,6.7,79.4,2.2c22.8-4,47.5-4.1,75.4-0.5c25,3.2,50.4,9.2,75,14.9
						c25.8,6,52.5,12.2,79.4,15.6c16,2,33.7,5.4,52.4,9c31.6,6.1,64.2,12.4,95.7,13.4c35.9,1.1,63.6-5.2,84.6-19.4
						c8.3-5.6,14.6-11.3,20.6-16.8c11.9-10.9,22.1-20.3,43.1-22.2c14.6-1.3,28.7,4.2,43.7,10.1c16.6,6.5,33.8,13.2,51.6,9.7
						c-4.7-25-18.1-42.3-38.7-50c-14.1-5.3-31.1-5.9-49-1.8c-16.9,3.9-33.6,11.9-47.1,22.6c-8.1,6.4-15.1,14.2-21.9,21.7
						c-6.5,7.2-13.2,14.7-20.7,20.7c-8.4,6.7-16.9,10.9-26.2,12.8c-23.1,4.7-56.7-3.9-86.3-11.4c-14.7-3.7-28.6-7.3-40.2-9
						c-12.4-1.9-25.2-3.5-37.6-5.2c-34.4-4.5-70.1-9.2-103.2-18.6c-11.6-3.3-21.3-6.8-30.6-10.2c-22.9-8.4-41-15-70.3-11.2
						c-13.3,1.7-26.7,5.1-39.6,8.4c-14.6,3.7-29.7,7.6-44.9,9c-18.5,1.7-36.9-0.8-54.8-3.2c-24.5-3.3-47.7-6.5-70.8,0.4
						c-23.9,7.1-40,18.2-54.1,28c-12.7,8.8-23.7,16.4-37.4,19.1c-15,3-31.9-0.3-53.2-10.4c-3-1.4-5.9-2.8-8.9-4.2
						c-31.4-14.9-61.1-28.9-91.6-37.3c-33.9-9.3-65.5-10.8-99.5-4.6c-30,5.5-59.1,22.9-87.4,39.8c-17.1,10.2-33.2,19.9-49.6,27.1
						c-18.6,8.2-34.1,11.9-48.9,11.5C14,304-14.5,289.2-44.7,273.6c-45.6-23.6-97.2-50.3-106.5-34.8
						C-146.7,237.9-142.8,237.5-138.9,237.5z"/>
				</g>
				<g>
					<path d="M48.6,406.8c-15.9,0-34.6-4.3-56.4-12.9C-38.3,381.9-70,363.3-98,347c-19-11.1-36.9-21.5-51.1-27.9l-0.9-0.4l1,0.2
						c21.4,4.8,49.4,20.5,79,37.1c27.4,15.4,55.7,31.3,82.1,40.5c14.2,5,26.4,7.5,37.3,7.7c12.1,0.3,22.6-2.5,31.1-8.2
						c11.6-7.7,19.2-20.5,26.6-32.9c5.5-9.3,11.2-18.9,18.6-26.2c14.9-14.8,31.1-23.9,49.7-28c16.4-3.5,34.6-3.2,57.3,1
						c16.3,3,32.4,7.5,48.2,12.3c15.2,2.9,30.1,7,44.8,10.9c31.7,8.5,64.4,17.3,98.4,15.1c7.4-0.5,14.5-1.7,21.3-3.4
						c22.1-7.1,39.5-22.1,56.4-36.7c18.4-15.9,35.8-30.9,57.9-34.7c28.2-4.9,55.1,14.9,83.7,35.9c20.1,14.8,40.7,29.9,62.8,37.3
						c18,4,35.4,4.6,54.4,1.9c15.3-2.1,30.8-5.4,47.2-8.9c10.5-2.2,21.1-4.5,31.7-6.4c16.3-3.7,32.8-7,49.1-8.6
						c24.9-2.4,46.7-0.4,66.6,6c23.6,7.7,45.5,18.6,66.7,29.2c22.7,11.3,44.2,22,67.4,29c12.5,3.7,24.3,6.1,36,7
						c13.2,1.1,26,0.5,39.3-1.7c21-3.6,45.1-16.7,70.7-30.7c22.9-12.5,46.6-25.4,69.2-31.8c12.2-3.5,22.9-4.7,32.8-3.9
						c11.1,0.9,20.9,4.5,29.7,11l0.3,0.2l-0.4-0.1c-18.8-3-38.4-1.1-59.9,5.7c-19.2,6.1-38.1,15.6-56.4,24.7
						c-25.5,12.8-51.9,25.9-79.8,30.7c-32.9,5.5-66.9,1-99.8-3.4c-6.2-0.8-12.6-1.7-18.9-2.5c-37.5-4.6-45.6-11.4-67.1-29.4
						c-4.1-3.4-8.8-7.3-14.2-11.7c-11.3-9.1-23.5-15.5-37.4-19.7c-12.3-3.7-25.5-5.6-40.5-5.6c-0.2,0-0.5,0-0.7,0
						c-17.2,0-35,2.4-52.7,5.6c-5.9,1.4-11.8,2.8-17.7,4.1c-28.8,6.8-58.5,13.9-88.1,14h-0.1c-9.4,0-18.6-1.7-27.4-4.7
						c-1.7-0.4-3.4-0.8-5.1-1.2c-17.7-4.5-33.8-11.6-50.9-19.1c-17.3-7.6-35.1-15.5-56.1-21.3c-17.5-4.9-34.1-5-52-0.2
						c-15.9,4.2-30.4,11.5-45.7,19.2c-16.1,8.1-32.5,16.3-50.9,20.9c-4.3,1.4-8.8,2.5-13.5,3.2c-21.1,3.2-43.2,2.5-67.6-2.2
						c-21.8-4.2-43.5-11.1-64.5-17.7c-6.3-2-12.7-4-19.1-6c-13.5-2.6-27.2-4.4-41-4.5c-16.9-0.1-33.3,1.7-48.7,5.5
						c-16.4,4-31.6,10.3-45.3,18.5c-12.1,7.2-22,17.9-31.5,28.1c-11.6,12.4-23.6,25.3-39.3,31.8C67.1,405.2,58.4,406.8,48.6,406.8z
						 M-148,319.3c14,6.4,31.6,16.7,50.2,27.5c28,16.3,59.7,34.8,90.2,46.9c35.2,13.9,62.1,16.5,82.4,8.1
						c15.6-6.5,27.6-19.4,39.2-31.8c9.6-10.3,19.5-20.9,31.6-28.2c13.8-8.3,29-14.5,45.4-18.5c15.4-3.8,31.8-5.7,48.7-5.5
						c13.2,0.1,26.3,1.7,39.2,4.2c-15.2-4.6-30.6-8.9-46.4-11.8c-22.7-4.2-40.9-4.6-57.2-1c-18.5,4-34.7,13.1-49.6,27.9
						c-7.3,7.3-13,16.9-18.5,26.1c-7.4,12.4-15,25.2-26.6,33c-8.6,5.7-19.1,8.5-31.2,8.2c-10.9-0.2-23.1-2.8-37.4-7.8
						c-26.3-9.2-54.7-25.1-82.1-40.5C-99.2,339.8-126.8,324.4-148,319.3z M892.1,327.8c0.2,0,0.5,0,0.7,0c15,0.1,28.3,1.9,40.6,5.6
						c13.9,4.2,26.1,10.7,37.4,19.8c5.4,4.4,10.1,8.3,14.2,11.7c21.5,18,29.6,24.8,67,29.4c6.3,0.8,12.7,1.6,18.9,2.5
						c32.9,4.4,66.9,8.9,99.7,3.4c27.9-4.7,54.3-17.9,79.8-30.6c18.3-9.2,37.3-18.6,56.4-24.7c21.3-6.8,40.8-8.7,59.6-5.8
						c-8.7-6.3-18.3-9.8-29.3-10.7c-9.8-0.8-20.5,0.4-32.7,3.9c-22.5,6.4-46.2,19.3-69.2,31.8c-25.6,13.9-49.7,27.1-70.8,30.7
						c-13.3,2.3-26.1,2.8-39.3,1.7c-11.8-1-23.6-3.3-36.1-7c-23.3-7-44.7-17.7-67.5-29c-21.2-10.6-43.1-21.5-66.7-29.2
						c-19.9-6.5-41.7-8.4-66.5-6c-14.8,1.4-29.8,4.3-44.7,7.6C860,329.8,876.3,327.8,892.1,327.8z M708,347.4
						c8.3,2.6,16.8,4.1,25.5,4.1h0.1c29.6,0,59.3-7.1,88-13.9c4.3-1,8.7-2.1,13-3.1c-9,1.7-18,3.6-27,5.5
						c-16.4,3.5-31.9,6.7-47.2,8.9C742.2,351.5,725.3,351,708,347.4z M282.6,322.9c5.8,1.8,11.5,3.6,17.2,5.4
						c21,6.7,42.7,13.5,64.5,17.7c24.4,4.7,46.5,5.4,67.6,2.2c3.5-0.5,7-1.3,10.3-2.2c-5.8,1.3-11.9,2.2-18.1,2.6
						c-34,2.1-66.8-6.6-98.5-15.1C311.5,329.6,297.2,325.8,282.6,322.9z M567.8,301.4c8.7,0,17.4,1.2,26.3,3.7
						c21,5.9,38.9,13.7,56.1,21.3c17.1,7.5,33.3,14.6,50.9,19.1c1.1,0.3,2.2,0.5,3.3,0.8c-21.5-7.6-41.6-22.4-61.2-36.8
						c-28.5-21-55.5-40.8-83.5-35.9c-22,3.8-39.4,18.8-57.8,34.7c-16.3,14-33,28.4-53.8,35.8c17.2-4.7,32.9-12.5,48.1-20.2
						c15.4-7.7,29.9-15,45.8-19.2C550.8,302.6,559.3,301.4,567.8,301.4z"/>
				</g>
				<g>
					<path d="M959.7,446.8c-9.7,0-19.5-2-29.5-7.3c-14.2-7.6-25-19.4-36.4-31.9c-12.6-13.9-25.7-28.3-44.2-36.7
						c-18.1-8.2-36.2-11.9-53.6-13.2c-8,1.7-15.9,3.6-23.3,5.3c-3.4,0.8-6.6,1.6-9.8,2.3c-36.2,8.4-70.9,6.4-104.4,4.4
						c-24-1.4-48.6-2.9-73.9-0.6c-13.5,2.4-26.7,5.7-39.4,10.2c-18.1,6.4-33.6,16.6-48.6,26.5c-14.3,9.4-27.7,18.3-42,22.8
						c-16,5.1-30.9,3.9-46.7-3.5c-15-7.1-29-14.9-42.5-22.5c-21.8-12.2-42.4-23.8-65.1-31c-25.4-8.2-49.7-9.7-76.3-4.9
						c-32,5.8-55.4,23-78,39.6c-13.8,10.2-28.1,20.7-44,28.2c-17.8,8.4-36,12.3-55.6,11.7c-33.3-1-72.3-9-104.3-21.4
						c-28-10.9-65-30.6-82.3-62.7l-0.1-0.2h0.2c16.2,1.4,32.3,5.8,49.1,13.5c15,6.9,29.3,15.7,43.1,24.2
						c27.2,16.8,55.3,34.2,90.9,37.7c24.8,2.5,44.7-0.5,62.6-9.3c15.9-7.9,28.2-19.3,41.2-31.5c17.8-16.6,36.2-33.8,66.1-43.8
						c27.5-9.1,58.4-9.8,94.7-2.1c30.5,6.5,59.4,17.5,91.3,30.1c22.3,8.8,42.1,12.6,62.4,11.7c18.6-0.8,35.9-5.2,56-10.3
						c14-3.5,29.8-7.6,47.9-10.7c6.5-1.1,13-2,19.4-2.5c33.5-6.1,69.2-7,104-7.9c22-0.6,42.8-1.1,63.1-2.9
						c13.8-1.2,28.8-1.9,44.3-0.7c25-5.3,52-8.9,74-2.6c24.6,7.1,32,21.2,39.9,36.2c5.5,10.4,11.1,21.2,22.9,30.7
						c9.8,8,21.5,11.5,35.5,10.7c12.5-0.7,25.8-4.6,38.6-8.4c9.5-2.8,19.4-5.8,28.9-7.3c20.3-3.3,41.2-4,61.3-4.6
						c21.9-0.7,44.5-1.4,66.5-5.5c17.7-3.3,38.7-11.2,61-19.5c54-20.2,115.2-43.1,157.1-12.9l0.2,0.1h-0.3
						c-39.4,5-78.1,15.4-115.4,25.4c-35.7,9.6-72.5,19.5-110,24.7c-20,2.8-40.3,2.6-59.9,2.5c-18.4-0.1-37.5-0.3-56.1,2
						c-12.5,1.5-24.7,5.3-36.5,8.9C988.6,442.4,974.2,446.8,959.7,446.8z M796.7,357.5c17.2,1.4,35.1,5.1,53,13.2
						c18.5,8.4,31.6,22.8,44.2,36.7c11.4,12.5,22.1,24.4,36.3,31.9c24.7,13.1,48.3,5.9,73.2-1.7c11.8-3.6,24-7.4,36.5-8.9
						c18.6-2.3,37.7-2.1,56.2-2c19.6,0.2,39.9,0.3,59.9-2.5c37.5-5.2,74.4-15.1,110-24.7c37.3-10,75.8-20.4,115.2-25.4
						c-41.8-29.8-102.9-7-156.7,13.1c-22.3,8.3-43.3,16.2-61,19.5c-22,4.2-44.7,4.9-66.5,5.5c-20.1,0.6-41,1.2-61.3,4.6
						c-9.5,1.6-19.3,4.5-28.9,7.3c-12.8,3.8-26.1,7.7-38.6,8.4c-14.1,0.8-25.7-2.8-35.6-10.8c-11.7-9.5-17.4-20.3-22.9-30.7
						c-7.8-14.9-15.3-29-39.8-36.1C848.2,348.8,821.5,352.3,796.7,357.5z M-139.8,362.1c9.6,17.7,31.6,42.9,82.1,62.5
						c32,12.4,71,20.4,104.3,21.4c19.6,0.6,37.7-3.2,55.5-11.7c15.9-7.5,30.2-18,44-28.2c22.6-16.6,46-33.8,78-39.7
						c26.7-4.8,50.9-3.3,76.4,4.9c22.6,7.3,43.3,18.8,65.1,31.1c13.5,7.6,27.5,15.4,42.5,22.5c15.8,7.5,30.6,8.6,46.6,3.5
						c14.3-4.5,27.7-13.4,42-22.8c15-9.9,30.5-20.1,48.6-26.5c12-4.2,24.4-7.4,37.1-9.8c-5.6,0.6-11.3,1.3-17.1,2.3
						c-18.1,3.1-33.9,7.1-47.9,10.7c-20.1,5.1-37.5,9.5-56.1,10.3c-20.3,0.8-40.2-2.9-62.5-11.7c-31.9-12.6-60.8-23.6-91.3-30.1
						c-36.2-7.7-67.1-7-94.6,2.1c-29.9,9.9-48.3,27.1-66,43.7c-13,12.1-25.3,23.6-41.3,31.5c-18,8.9-37.9,11.8-62.7,9.3
						c-35.6-3.6-63.7-21-91-37.8c-13.8-8.5-28-17.3-43.1-24.2C-107.7,367.9-123.7,363.5-139.8,362.1z M613.2,367.7
						c15.4,0,30.5,0.9,45.4,1.8c33.5,2,68.2,4,104.4-4.4c3.2-0.7,6.4-1.5,9.8-2.3c7.2-1.7,14.8-3.5,22.6-5.2
						c-15.3-1.1-30-0.4-43.6,0.8c-20.3,1.8-41.1,2.3-63.1,2.9c-34,0.9-68.9,1.8-101.7,7.5C595.8,368,604.6,367.7,613.2,367.7z"/>
				</g>
				<g>
					<path d="M926.1,499.1c-1.6,0-3.2,0-4.8-0.1c-10.1-0.3-19.2-2.1-27.5-5.4c-7.5-3-14.3-7.1-20.8-12.7
						c-12.2-10.3-21.6-24.2-30.7-37.7c-17.1-25.3-34.8-51.4-72-57.8c-29.3-5.1-68.7-5.3-108.1-0.6c-41.3,4.9-78.4,14.6-104.4,27.3
						c-17.9,8.7-33.9,21.8-49.4,34.4c-14.2,11.6-28.9,23.6-44.8,31.9c-8.5,4.5-16.7,7.6-25.1,9.5c-9.4,2.1-18.6,2.7-28.4,1.8
						c-28.3-2.7-54.5-15-79.9-26.9c-16.1-7.5-32.7-15.3-49.8-20.7c-19.2-6-36.9-8.2-54.1-6.8c-32.9,2.8-63.4,14.8-92.8,26.5
						c-34.7,13.8-70.4,28-111.5,28c-0.5,0-1,0-1.5,0c-37.4-0.3-74.6-6.9-102.2-18.2c-26-10.6-33.7-22.8-43.5-38.4
						c-4.9-7.7-10.4-16.5-19-26.2l-0.2-0.2h0.3c12.7,2,25.6,6.3,39.4,13.2c12.3,6.1,24.2,13.6,35.7,20.9
						c27.4,17.4,55.8,35.3,93.1,36.9c21.7,0.9,42-2.2,64.2-9.9c19.5-6.8,37.3-16,56.2-25.7c19.6-10.1,39.8-20.5,62-28
						c60-20,114.5,8.3,167.2,35.7c9.6,5,19.5,10.1,29.1,14.8c4.1,2,7.9,3.9,11.2,5.5c26.7,13.4,32.3,16.1,56.7-1.2
						c11-7.8,19.1-16.2,27-24.2c13.5-13.8,26.2-26.9,51.7-35.8c28.9-10,62.4-18.1,96.9-23.5c33.5-5.2,67.9-7.8,99.5-7.5
						c18.6,0.2,33.9,2,48.1,5.7c15.8,4.2,30.2,10.8,44.1,20.3c13,8.9,23.2,22.5,33.1,35.6c12.6,16.8,24.6,32.6,41.7,39.8
						c11.4,4.8,24.1,5.6,38.7,2.7c12.9-2.6,25.6-7.8,37.9-12.8c4.9-2,9.4-3.8,14-5.5c31.8-11.8,63.3-17.6,96.6-23.7
						c7.6-1.4,15.4-2.8,23.2-4.3c14-2.7,32.2-8,53.3-14.1c67.8-19.7,160.6-46.8,202-10.4l0.2,0.2h-0.3c-30.3-0.2-62.9,2.1-99.8,6.9
						c-32.9,4.3-66.4,10.3-98.7,16.1c-10.2,1.8-20.8,3.7-31.2,5.5c-29,5.1-59.4,15.8-91.6,27.1C1013.1,483,967.4,499.1,926.1,499.1z
						 M717.7,381.4c19.3,0,37.3,1.3,52.6,3.9c37.3,6.4,55,32.6,72.1,57.9c9.1,13.4,18.5,27.3,30.7,37.6c6.5,5.5,13.3,9.7,20.8,12.6
						c8.4,3.3,17.3,5.1,27.5,5.4c42.5,1.3,90-15.4,135.9-31.6c32.2-11.4,62.6-22.1,91.6-27.1c10.4-1.8,21-3.7,31.2-5.5
						c32.3-5.8,65.8-11.8,98.7-16.1c36.8-4.8,69.3-7.1,99.5-6.9c-14.8-12.9-36.2-17.7-60.5-17.7c-43.9,0-97.6,15.7-141.1,28.3
						c-21.1,6.1-39.3,11.4-53.3,14.1c-7.8,1.5-15.6,2.9-23.2,4.3c-33.3,6.1-64.8,11.8-96.6,23.7c-4.6,1.7-9.1,3.6-14,5.5
						c-12.3,5-25,10.2-38,12.8c-14.7,3-27.4,2.1-38.8-2.7c-17.2-7.2-29.1-23-41.8-39.8c-9.9-13.1-20.2-26.7-33.1-35.6
						c-13.8-9.5-28.2-16.1-44-20.3c-14.2-3.7-29.4-5.6-48.1-5.7c-31.6-0.3-66,2.3-99.4,7.5c-34.5,5.3-68,13.5-96.8,23.5
						c-25.5,8.8-38.2,21.9-51.7,35.7c-7.8,8.1-16,16.4-27,24.2c-24.5,17.4-30.1,14.6-56.9,1.2c-3.3-1.7-7.1-3.5-11.2-5.5
						c-9.6-4.7-19.6-9.8-29.1-14.8c-52.6-27.4-107-55.7-167-35.7c-22.2,7.4-42.5,17.8-62,27.9c-18.9,9.7-36.7,18.9-56.2,25.7
						c-22.2,7.7-42.6,10.8-64.2,9.9c-37.4-1.6-65.8-19.6-93.2-36.9c-11.5-7.3-23.4-14.8-35.7-20.9c-13.6-6.8-26.4-11.1-39-13.1
						c8.5,9.6,14,18.3,18.8,26c9.8,15.5,17.5,27.7,43.4,38.3c27.6,11.2,64.8,17.8,102.1,18.1c0.5,0,1,0,1.5,0
						c41,0,76.7-14.2,111.3-27.9c29.4-11.7,59.9-23.8,92.9-26.5c17.2-1.4,34.9,0.8,54.2,6.8c17.1,5.4,33.8,13.2,49.9,20.7
						c25.4,11.9,51.6,24.2,79.9,26.9c9.7,0.9,19,0.3,28.3-1.8c8.3-1.9,16.5-5,25-9.4c15.8-8.3,30.5-20.3,44.7-31.8
						c15.5-12.6,31.6-25.7,49.5-34.4c26.1-12.7,63.2-22.4,104.5-27.3C681,382.5,699.9,381.4,717.7,381.4z"/>
				</g>
				<g>
					<path d="M327.2,557.5c-5.9,0-12.1-0.7-18.9-2.3c-16.7-4-31.3-14-45.4-23.6c-17.3-11.8-35.2-24.1-57.7-26.2
						c-32.3-3.1-65.5,2.2-97.6,7.2C74.9,517.7,41,523.1,6.9,520c-15.5-1.4-37.2,3.2-60.1,8.1c-19.8,4.2-40.4,8.6-58.7,9.5
						c-20.8,1-35.5-2.8-44.8-11.6c-5.6-5.2-9.4-12.4-11.3-21.4c-2.1-9.6-2.1-21.6,0-35.7v-0.3l0.1,0.3
						c10.6,21.2,32.8,33.2,67.9,36.5c30.2,2.9,64.5-1.1,94.8-4.5c15-1.7,29.2-3.4,40.7-3.8c33.8-1.4,69.1-3.8,97.8-16.3
						c8.8-3.9,16.4-8,23.7-12c9.9-5.4,19.2-10.6,29.5-13.5c11.3-3.2,22.6-3.5,35.7-0.7c10.9,2.3,20.8,6.6,30.3,13.3
						c8.4,5.9,15.8,13.1,22.9,20.1c9.9,9.7,20.1,19.8,33.8,27c11,5.8,23.6,9.3,38.7,10.6c13.4,1.2,27.5,0.6,41,0
						c8.8-0.4,17.8-0.8,26.7-0.7c5,0,10.3,0.4,15.9,0.7c19.5,1.2,41.7,2.5,56.6-8.4c11.2-8.2,18.1-21.3,25.3-35.2
						c8.3-15.9,16.9-32.4,33-43.3c12.3-8.3,27.6-15.6,45.5-21.5c17.2-5.8,36.4-10.1,55.5-12.6c19.8-2.6,38.9-3.1,56.9-1.7
						c19,1.5,35.7,5.3,49.6,11.2c28,11.8,43.8,33.9,59.1,55.3c10.2,14.2,19.7,27.5,32.6,38.2c6.9,5.7,14.1,10.1,22,13.4
						c8.8,3.7,18.3,5.9,28.9,6.7c48,3.9,99.8-18.3,149.9-39.9c25.2-10.8,49-21,71.7-27.7c3.3-1,6.7-2,10.3-3
						c36.5-10.8,82-24.3,127.1-29.6c24.6-2.8,46.6-2.8,65.5,0c21.9,3.3,40.5,10.5,55.2,21.5l0.3,0.2h-0.3c-41.1-2.9-84.4-1-132.4,6
						c-39.6,5.8-82.1,14.9-129.9,28.1c-21.8,6-44.2,14.7-67.9,23.9c-32.2,12.6-65.6,25.6-98.7,31.8c-17.9,3.4-34.1,4.5-49.6,3.4
						c-17.4-1.2-33.3-5.2-48.6-12.1c-27.2-12.3-39.4-34.9-51.2-56.7c-6.4-11.8-13-24.1-21.9-34.3c-10-11.4-21.9-18.9-36.5-23.2
						c-30.2-8.8-72.3-9.2-112.6-0.9c-20.9,4.3-39.9,10.5-56.6,18.6c-18,8.7-32.4,19.2-42.7,31.1c-7.3,8.5-11.9,18.8-16.3,28.9
						c-6.1,13.8-11.8,26.8-24.1,34.6c-12.5,7.9-33,7.9-52.9,7.9c-13.5,0-26.3,0-36,2.4c-10,2.5-18.9,5.7-27.4,8.9
						C356.1,552.6,342.8,557.5,327.2,557.5z M185.1,504.2c6.7,0,13.5,0.3,20.1,0.9c22.6,2.1,40.5,14.4,57.8,26.2
						c14.1,9.6,28.7,19.6,45.3,23.6c24.6,5.9,42-0.5,62.3-7.9c8.6-3.1,17.4-6.4,27.5-8.9c9.7-2.4,22.5-2.4,36-2.5
						c19.8,0,40.3,0,52.8-7.9c12.3-7.7,18-20.7,24-34.5c4.4-10,9-20.4,16.3-28.9c10.3-11.9,24.7-22.4,42.8-31.1
						c16.7-8.1,35.7-14.3,56.6-18.6c40.3-8.2,82.5-7.9,112.7,0.9c14.6,4.3,26.6,11.9,36.5,23.2c8.9,10.2,15.6,22.4,22,34.3
						c11.8,21.8,24,44.3,51.1,56.6c15.3,6.9,31.2,10.9,48.5,12.1c15.4,1.1,31.6,0,49.5-3.4c33.2-6.2,66.5-19.2,98.7-31.8
						c23.7-9.2,46-17.9,67.9-23.9c47.9-13.1,90.4-22.3,130-28.1c47.9-7,91.1-8.9,132.1-6c-14.7-10.8-33.1-18-54.9-21.3
						c-18.9-2.8-40.9-2.8-65.5,0c-45.2,5.2-90.6,18.7-127.1,29.6c-3.5,1-6.9,2.1-10.3,3c-22.7,6.7-46.5,16.9-71.7,27.7
						c-46.2,19.8-93.9,40.3-138.7,40.3c-3.8,0-7.6-0.1-11.4-0.5c-10.7-0.9-20.1-3.1-29-6.8c-7.9-3.3-15.1-7.7-22-13.4
						c-12.9-10.7-22.5-24-32.6-38.2c-15.3-21.3-31.1-43.4-59-55.2c-13.8-5.9-30.5-9.6-49.5-11.1c-17.9-1.4-37-0.9-56.8,1.7
						c-19.1,2.5-38.3,6.8-55.5,12.6c-17.9,6-33.1,13.2-45.5,21.5c-16,10.8-24.6,27.3-32.9,43.2c-7.3,13.9-14.1,27.1-25.4,35.3
						c-15,11-37.2,9.6-56.8,8.5c-5.6-0.3-10.9-0.6-15.9-0.7c-8.8-0.1-17.9,0.3-26.6,0.7c-13.6,0.6-27.7,1.2-41.1,0
						c-15-1.3-27.7-4.8-38.7-10.6c-13.6-7.2-23.9-17.3-33.8-27c-7.1-7-14.5-14.2-22.9-20.1c-9.4-6.6-19.3-10.9-30.2-13.2
						c-13-2.7-24.3-2.5-35.6,0.7c-10.2,2.9-19.5,8-29.4,13.5c-7.3,4-14.9,8.2-23.7,12.1c-28.7,12.5-64.1,14.9-97.8,16.3
						c-11.4,0.5-25.7,2.1-40.7,3.8c-30.3,3.5-64.5,7.4-94.8,4.5c-35-3.3-57.3-15.2-68-36.3c-2,13.9-2,25.8,0.1,35.3
						c1.9,8.9,5.7,16,11.3,21.3c9.3,8.8,24,12.5,44.7,11.5c18.3-0.9,38.8-5.3,58.7-9.5c23-4.9,44.6-9.5,60.2-8.1
						c34.1,3.1,68-2.3,100.8-7.4C133.1,508.3,159.3,504.2,185.1,504.2z"/>
				</g>
				<g>
					<path d="M334.8,570c-4.3,0-8.9-0.2-13.8-0.6c-23.2-1.9-46.6-6.9-69.3-11.8c-12.4-2.7-25.2-5.4-37.8-7.6
						c-74.4-12.9-152.4-16.7-227.8-20.4l-2-0.1c-7.8-0.4-23.8,4-42.3,9.1c-40.1,11.1-95,26.2-115.3,6.4c-4-3.9-6.6-9.1-7.5-15.5
						c-1.1-6.8-0.4-15.1,2-24.7l0.1-0.2l0.1,0.2c8,10.6,16.1,18.2,24.5,23.4c7.8,4.8,16,7.5,25.2,8.3c17.4,1.5,36.5-4.3,58.6-10.9
						l1.4-0.4c31.4-9.4,58.5-10,87.2-10.7c12.7-0.3,25.9-0.6,40-1.7c21-1.6,42.8-9,63.8-16.2c18.5-6.3,37.5-12.8,56.2-15.5
						c10.1-1.4,19.2-1.7,27.9-0.8c9.8,1.1,18.8,3.6,27.5,7.7c22.4,10.5,34.9,26.7,46,41c17.1,22.2,31.9,41.3,76.7,34.8l2.2-0.3
						c8-1.2,17.8-2.6,28.3-4.3c1.3-0.5,2.6-0.9,4-1.4c9.2-3.3,18.7-6.8,30.5-10c10.4-2.8,20.8-3.3,30.9-3.8
						c4.7-0.2,9.3-0.4,13.8-0.9c2.4-0.7,4.6-1.5,6.6-2.2c19.1-7,29.4-22,40.3-38c7.4-10.8,15-22,25.8-31.2c2-1.7,4.1-3.4,6.3-5.1
						c4-4.3,8.5-8.3,13.7-11.5c13.6-8.7,30.5-16.2,48.6-21.7c1.8-0.6,3.6-1.1,5.5-1.6c10.6-3.6,21.5-6.6,32.4-8.9
						c22-4.6,42.6-6,61.3-4.1c20.7,2.1,38.2,8.2,52.1,18c20.9,14.9,33.2,33.3,45,51c9.8,14.7,19.1,28.6,32.6,39.4
						c15.2,12.2,33.4,18.6,57.5,20.3c56.6,4,112.2-20.1,166-43.4c26.3-11.4,51.2-22.2,76.2-29.9l1.4-0.4
						c29.2-9,78.2-24.2,125.3-30.1c26-3.3,48.7-3.4,67.5-0.4c22.2,3.5,39.6,11.6,51.7,23.8l0.2,0.2h-0.3c-88.3-8.6-177,0-263.5,25.5
						c-25.4,7.5-51.2,19.2-76,30.6c-23.3,10.6-47.3,21.6-71.5,29.4c-27.2,8.7-51.5,12.3-74.3,10.9c-59.8-3.7-78-30.9-101.1-65.3
						c-8.9-13.4-18.2-27.2-30.8-41.3c-33.9-38-98.3-39.9-151.9-24.9c-25.6,8.7-49.5,21-67.5,34.8c-8.5,9.2-15,20.3-21.2,31.1
						c-8.1,13.9-15.7,27-27.1,35.2c-9.6,6.8-19.9,9.2-30.8,10.3c-20.5,6.3-52.4,11.9-79.2,16.1C370.2,565.4,355.9,570,334.8,570z
						 M-16.9,529.3c0.3,0,0.7,0,1,0l2,0.1c75.4,3.7,153.4,7.5,227.8,20.4c12.6,2.2,25.4,4.9,37.8,7.6c22.6,4.8,46,9.9,69.2,11.8
						c28.7,2.4,45.3-2.6,64.6-9.5c-10.2,1.6-19.6,3-27.3,4.1l-2.2,0.3c-44.8,6.6-59.7-12.6-76.8-34.9c-11-14.3-23.5-30.4-45.9-40.9
						c-8.7-4.1-17.7-6.6-27.4-7.6c-8.7-0.9-17.8-0.7-27.8,0.8c-18.6,2.7-37.7,9.2-56.1,15.5c-21.1,7.2-42.9,14.6-63.9,16.2
						c-14.1,1.1-27.3,1.4-40,1.7c-28.7,0.7-55.8,1.3-87.1,10.7l-1.4,0.4c-22.2,6.6-41.3,12.4-58.7,10.9c-9.2-0.8-17.4-3.5-25.3-8.3
						c-8.4-5.2-16.4-12.8-24.5-23.3c-2.4,9.5-3,17.7-2,24.4c1,6.3,3.5,11.5,7.5,15.3c20.2,19.7,75.1,4.6,115.1-6.5
						C-40.5,533.6-25.1,529.3-16.9,529.3z M673.8,423.1c16.8,0,32.4,2.2,46.3,6.5c18.3,5.6,33.2,14.8,44.3,27.3
						c12.7,14.2,21.9,28,30.8,41.4c23,34.4,41.2,61.6,100.9,65.3c22.8,1.4,47.1-2.1,74.3-10.9c24.2-7.8,48.2-18.7,71.5-29.4
						c24.9-11.4,50.6-23.1,76.1-30.6c86.4-25.5,175-34.1,263.3-25.5c-12.1-12.1-29.4-20.1-51.4-23.6c-18.8-3-41.5-2.8-67.4,0.4
						c-47.1,6-96,21.1-125.2,30.1l-1.4,0.4c-25,7.7-49.9,18.5-76.2,29.9c-49.8,21.6-101.2,43.8-153.5,43.8c-4.2,0-8.4-0.1-12.7-0.4
						c-24.1-1.7-42.4-8.2-57.6-20.4c-13.5-10.8-22.8-24.8-32.7-39.5c-11.9-17.7-24.1-36.1-45-51c-13.8-9.9-31.3-15.9-52-18
						c-18.7-1.9-39.3-0.5-61.2,4.1c-9.7,2-19.5,4.7-29,7.8c16.1-4.2,32.6-6.8,48.4-7.6C667.5,423.2,670.7,423.1,673.8,423.1z
						 M464.7,543.5c-4.2,0.4-8.5,0.6-12.9,0.8c-10.1,0.5-20.5,1-30.8,3.8c-11.8,3.2-21.3,6.6-30.5,10c-1,0.4-2,0.7-3,1.1
						C413.7,555.1,444.4,549.6,464.7,543.5z M543.9,467.6c-1.9,1.5-3.7,2.9-5.4,4.4c-10.8,9.3-18.4,20.4-25.8,31.2
						c-10.9,16-21.1,31-40.4,38c-1.8,0.6-3.7,1.3-5.7,1.9c10.5-1.1,20.4-3.5,29.7-10.1c11.4-8.2,19-21.3,27.1-35.2
						C529.5,487.3,535.8,476.6,543.9,467.6z M608.9,433.1c-18.9,5.6-36.3,13.3-50.4,22.2c-4.8,3.1-9,6.7-12.8,10.6
						C562.8,453.1,585,441.6,608.9,433.1z"/>
				</g>
				<g>
					<path d="M954.5,613.4c-2.1,0-4.2,0-6.4-0.1c-17.1-0.4-35.2-2.5-53.6-6.2c-34-6.8-68.6-18.9-100.2-34.9
						c-23-11.7-38.7-28.4-54-44.6c-10.9-11.6-21.2-22.6-34-31.8c-14.4-10.4-29.4-16.6-47.3-19.6c-26-4.3-46.9-1.5-65.9,8.7
						c-17,9.2-30.5,23.3-44.7,38.2c-16,16.7-32.5,34-56,47c-68.2,37.8-125.7,48-205.3,36.2c-16.6-2.5-33.6-5.1-50-7.7
						c-76-12-154.5-24.3-232.1-21.6c-17,0.6-38.1,7.5-60.4,14.7c-26.1,8.5-53.1,17.3-76.9,17.3c-0.2,0-0.3,0-0.5,0
						c-13-0.1-23.6-2.7-32.7-8.2c-10.1-6.1-18-15.8-23.7-28.9l-0.3-0.7l0.5,0.6c9.2,11.4,18.7,19.5,29.1,24.8
						c9.3,4.7,19.1,7,29.9,7.1c20.2,0.1,40.5-7.5,62-15.6c15-5.6,30.5-11.4,45.9-14.4c33.6-6.4,78.4-9.9,122.9-9.7
						c47.4,0.3,90.8,4.8,122.1,12.7c2.7,0.7,5.5,1.4,8.2,2.1c39.4,9.9,80.1,20.2,121,22.5c46.7,2.6,85.2-6.1,117.8-26.6
						c24.6-15.5,41.6-38.3,58.1-60.3c27.2-36.4,52.9-70.7,109-67.5c23,1.3,41.4,7.2,58,18.4c14.8,10.1,26.4,23.2,38.6,37.1
						c12.1,13.7,24.5,27.9,41.4,40.6c14.2,10.8,30.5,19.9,48.4,27.3c16.9,7,35.3,12.3,54.6,15.8c36.8,6.7,75.7,6.9,112.6,0.5
						c37.1-6.5,79.9-30.2,125.2-55.3c47.7-26.4,97-53.7,144.5-63.8c25.7-5.5,48.4-5.4,69.2,0.2c11.4,3.1,22.3,7.9,32.4,14.3
						c10.7,6.7,20.9,15.5,30.4,26l0.2,0.2l-0.3-0.1c-35.4-7.1-73-14.3-110.2-16.1c-19.5-0.9-37.4-0.4-54.7,1.7
						c-19.2,2.3-37.3,6.4-55.1,12.5c-30.8,10.5-55.6,30.4-79.5,49.6c-13.7,11-27.9,22.4-43,31.8c-16.9,10.5-33.2,17.3-49.9,20.8
						C985.8,611.9,970.6,613.4,954.5,613.4z M636.9,474c7,0,14.4,0.7,22.2,2c17.8,3,32.9,9.2,47.3,19.6c12.8,9.2,23.1,20.2,34,31.8
						c15.2,16.2,30.9,33,53.9,44.6c31.6,16,66.2,28.1,100.2,34.9c18.5,3.7,36.5,5.8,53.6,6.2c18.3,0.4,35.7-1,51.6-4.4
						c16.6-3.5,32.9-10.3,49.8-20.8c15.1-9.4,29.3-20.8,43-31.8c24-19.2,48.7-39.1,79.6-49.7c17.9-6.1,35.9-10.2,55.2-12.5
						c17.4-2.1,35.3-2.6,54.8-1.7c37.1,1.8,74.7,8.9,110,16c-9.4-10.4-19.5-19.1-30.1-25.8c-10.1-6.4-21-11.2-32.4-14.2
						c-20.8-5.6-43.4-5.7-69.1-0.2c-47.5,10.1-96.8,37.4-144.4,63.8c-45.3,25.1-88.1,48.8-125.3,55.3c-36.9,6.5-75.8,6.3-112.6-0.5
						c-19.3-3.5-37.7-8.9-54.7-15.8c-17.9-7.4-34.2-16.5-48.4-27.3c-16.8-12.7-29.3-26.9-41.4-40.6c-12.2-13.9-23.8-27-38.6-37.1
						c-16.6-11.2-35-17.1-57.9-18.4c-56-3.2-81.7,31.1-108.8,67.4c-16.5,22-33.5,44.8-58.2,60.3c-32.6,20.5-71.2,29.2-117.9,26.6
						c-40.9-2.3-81.6-12.6-121-22.5c-2.8-0.7-5.5-1.4-8.2-2.1c-31.3-7.9-74.7-12.4-122.1-12.7c-44.5-0.3-89.3,3.3-122.9,9.7
						c-15.5,2.9-30.9,8.8-45.9,14.4c-21.3,8-41.4,15.6-61.5,15.6c-0.2,0-0.4,0-0.5,0c-10.9-0.1-20.7-2.4-30-7.1
						c-10.2-5.2-19.6-13.1-28.7-24.3c5.6,12.7,13.4,22.2,23.3,28.1c9,5.4,19.6,8.1,32.6,8.1c23.9,0.1,51-8.7,77.3-17.2
						c22.3-7.3,43.4-14.1,60.5-14.7c77.6-2.7,156.1,9.6,232.1,21.6c16.4,2.6,33.4,5.3,50,7.7c20.7,3.1,39.8,4.6,58.1,4.6
						c52,0,96.7-12.8,147.1-40.8c23.5-13,40-30.3,55.9-47c14.3-15,27.8-29.1,44.8-38.3C606.4,477.5,620.6,474,636.9,474z"/>
				</g>
				<g>
					<path d="M380,632c-31.6,0-63.8-4.7-95.5-9.3c-17-2.5-33.1-4.8-49.2-6.5c-23.5-2.4-48-5.3-71.6-8.1c-60-7.1-122-14.4-180.7-16
						c-1.6,0-3.2,0-4.8,0c-14,3-28.8,7.8-44,12.7c-45.8,14.9-93.1,30.3-126.2-4.7l0.1-0.1c8.2,6.2,16.8,10.5,26.3,13.1
						c8.5,2.3,17.5,3.2,27.5,2.7c18.7-0.9,38.2-6.5,57-11.9c19.7-5.7,40-11.5,59.3-11.9c9.1-1.9,17.9-3.1,26.3-3
						c75.3,0.7,154,7.9,247.8,22.4c47.7,7.4,84.3,10.1,118.6,8.8c41.5-1.6,79.4-9.3,115.8-23.8c11.9-4.7,22.9-11.3,33.2-18.7
						c0.6-0.5,1.2-1,1.7-1.5c11.1-9.8,21.7-19.1,33.8-26.9c12.6-10.4,24.9-20.1,38.6-27.4c8.7-4.7,17.1-7.9,25.7-10
						c9.6-2.3,19.2-3,29.4-2.2c16.6,1.4,33.4,6.7,51.3,16.2c16,8.5,31.4,19.6,46.4,30.3c20.7,14.8,42.1,30.2,65.5,39.2
						c32.6,12.6,67.4,20,103.6,22c35.2,1.9,70.7-1.3,105.5-9.7c30.5-7.3,68-29.3,107.6-52.6c23.2-13.7,47.3-27.8,71.4-39.9
						c27.3-13.7,50.7-22.6,71.6-27.4c25.3-5.8,47.2-5.5,66.9,0.7c10.7,3.4,20.8,8.7,30.1,15.7c9.7,7.4,18.8,17.1,27,28.6l0.2,0.2
						l-0.3-0.1c-7-1.9-14.1-3.8-20.9-5.7c-68-18.6-132.3-36.2-196.1,3.4c-6.1,3.8-12.3,7.6-18.2,11.4c-29.1,18.2-56.6,35.4-86,49.7
						c-33,16-63.4,25.8-95.6,30.9c-19.1,3-38.3,4.3-57.1,3.8c-18.2-0.4-36.6-2.5-54.7-6.2c-34.2-7-68.5-19.6-104.9-38.5
						c-6.9-3.6-13.9-7.4-20.6-11c-21.8-11.8-42.5-23-64.6-30.7c-11.9-4.2-23.1-6.9-34.3-8.5c-12.5-1.7-24.7-1.9-37.2-0.5
						c-17,1.9-32,7.1-47.1,16.3c-1,0.6-2,1.2-3,1.9c-2.3,1.9-4.6,3.8-7,5.8c-9.2,7.7-18.6,15.6-28.6,22.7
						c-15.1,13.3-30.9,26.9-51.1,36.4C440.7,627.6,410.7,632,380,632z M-19.6,591.9c0.9,0,1.8,0,2.6,0c58.7,1.6,120.7,8.9,180.7,16
						c23.6,2.8,48.1,5.7,71.6,8.1c16.1,1.7,32.2,4,49.2,6.5c62.5,9.1,127.1,18.5,184.3-8.4c19.5-9.2,34.9-22.2,49.6-35.2
						c-9.9,6.9-20.3,13.1-31.7,17.6c-36.4,14.5-74.3,22.2-115.9,23.8c-34.3,1.3-70.9-1.4-118.6-8.8C158.5,597,79.7,589.8,4.5,589.1
						c-8.1-0.1-16.5,1-25.3,2.8C-20.4,591.9-20,591.9-19.6,591.9z M622.4,530c6.8,0,13.6,0.5,20.5,1.4c11.2,1.5,22.4,4.3,34.4,8.5
						c22.2,7.8,42.8,18.9,64.7,30.8c6.7,3.6,13.6,7.4,20.6,11c36.3,19,70.6,31.6,104.8,38.5c18.1,3.7,36.5,5.8,54.7,6.2
						c18.8,0.5,38-0.8,57.1-3.8c32.2-5.1,62.5-14.9,95.5-30.9c29.3-14.2,56.8-31.5,85.9-49.7c5.9-3.7,12.1-7.6,18.2-11.4
						c63.9-39.6,128.2-22,196.2-3.4c6.7,1.8,13.7,3.8,20.6,5.6c-8.1-11.4-17.1-21-26.8-28.3c-9.2-7-19.3-12.3-30-15.7
						c-19.6-6.2-41.4-6.4-66.7-0.7c-20.9,4.7-44.3,13.7-71.6,27.3c-24.1,12.1-48.1,26.2-71.4,39.9c-39.6,23.3-77.1,45.3-107.6,52.7
						c-34.8,8.4-70.4,11.6-105.6,9.7c-36.2-2-71.1-9.4-103.7-22c-23.4-9.1-44.8-24.4-65.5-39.3c-14.9-10.7-30.4-21.8-46.4-30.3
						c-17.9-9.5-34.6-14.8-51.2-16.2c-10.2-0.8-19.8-0.1-29.4,2.2c-8.6,2-17,5.3-25.6,9.9c-13.2,7.1-25.1,16.3-37.3,26.4
						c0.5-0.3,1.1-0.7,1.6-1c15.1-9.3,30.1-14.5,47.2-16.4C611.3,530.3,616.8,530,622.4,530z M-191.1,600.8
						c33,33.7,79.8,18.5,125.1,3.8c14.9-4.8,29.3-9.5,43-12.5c-19,0.6-38.8,6.3-58.1,11.9c-18.9,5.4-38.4,11-57.1,11.9
						c-10.1,0.5-19.1-0.4-27.6-2.7C-174.9,610.8-183.2,606.7-191.1,600.8z M554.1,550.3c-11.5,7.6-21.6,16.6-32.3,26
						c-0.1,0.1-0.1,0.1-0.2,0.2c9.3-6.8,18.2-14.2,26.9-21.5C550.3,553.5,552.2,551.9,554.1,550.3z"/>
				</g>
				<g>
					<path d="M-116.2,672.4c-5.5,0-11-0.2-16.4-0.7c-26.6-2.4-47.3-11.5-63.5-27.6l-0.6-0.6l0.7,0.4c39.1,23.2,85.6,12.5,130.6,2.2
						C-41,640.5-18,635.2,4,634.9c43.6-0.6,88.1,3,131.1,6.5s87.5,7.1,131.3,6.5c76-1,142.5-6.9,203.3-18.3
						c19.9-3.7,39.4-10.2,58.3-16.5c21.6-7.1,43.8-14.5,66.5-17.8c41-5.8,84.1,5.5,125.7,16.4c24.5,6.4,49.7,13.1,74,16
						c83.5,10.1,171.4,8.4,261.3-4.9c30.8-4.6,58.6-11.7,87.6-22.5c26.1-9.7,50.7-21.6,76.7-34.1c12.8-6.2,26-12.5,40.2-19
						c12-5.5,34.6-9.4,56.1-9.8c26.7-0.4,48.1,4.6,60.2,14.2c10.3,8.1,14.2,19.4,11.5,33.5v0.1l-0.1-0.1
						c-21.6-12.1-43.7-19.4-67.3-22.2c-21.1-2.5-43-1.4-66.9,3.4c-44.5,8.9-89.4,29.5-132.9,49.4c-37.5,17.2-76.4,34.9-114.5,44.9
						c-19.9,5.2-39.4,8-59.7,8.6c-18.1,0.5-36.4-0.8-55.9-4c-36.3-5.9-71.8-17.7-106.1-29.1c-48.4-16.1-98.5-32.8-153.8-34.4
						c-33.4-1-68.4,9.8-102.3,20.3c-23,7.1-46.7,14.4-69.5,17.9C380.7,652,299.5,654.4,221,656.8l-7.1,0.2
						c-27.1,0.8-54.6,1.1-81.1,1.4c-54.7,0.6-111.4,1.2-166.9,6.3c-8.6,0.8-17.3,1.9-26.6,3.1C-79,670-97.8,672.4-116.2,672.4z
						 M-195.4,644.5c16,15.8,36.6,24.6,62.8,27c23.4,2.1,48-1,71.8-4c9.2-1.2,18-2.3,26.6-3.1c55.6-5.1,112.2-5.7,166.9-6.3
						c26.6-0.3,54.1-0.6,81.1-1.4l7.1-0.2c78.5-2.3,159.6-4.7,237.9-16.6c22.8-3.5,46.5-10.8,69.5-17.9
						c33.9-10.4,68.9-21.2,102.4-20.3c55.3,1.6,105.4,18.3,153.9,34.4c34.3,11.4,69.8,23.2,106.1,29.1c19.5,3.2,37.8,4.5,55.9,4
						c20.3-0.6,39.8-3.4,59.7-8.6c38.1-10,76.9-27.8,114.4-44.9c43.5-19.9,88.4-40.5,132.9-49.4c24-4.8,45.9-5.9,67-3.4
						c23.6,2.8,45.6,10,67.3,22.1c2.7-14-1.2-25.1-11.4-33.2c-12.1-9.5-33.5-14.5-60.1-14.1c-21.5,0.3-44,4.2-56.1,9.7
						c-14.2,6.5-27.4,12.9-40.2,19c-52.1,25-97.1,46.7-164.4,56.6c-89.9,13.3-177.8,14.9-261.3,4.9c-24.2-2.9-49.5-9.6-74-16
						c-41.6-10.9-84.7-22.2-125.7-16.4c-22.7,3.2-45,10.6-66.5,17.8c-18.9,6.3-38.5,12.8-58.4,16.5
						c-60.8,11.3-127.3,17.3-203.4,18.3c-43.8,0.6-88.3-3.1-131.4-6.5c-43-3.5-87.5-7.1-131.1-6.5c-21.9,0.3-44.9,5.6-69.3,11.2
						c-25.2,5.8-50.9,11.7-75.4,11.7C-159.8,658-178.3,654.4-195.4,644.5z"/>
				</g>
				<g>
					<path d="M880.3,746.1c-31.5,0-63.8-4.6-96-13.8c-25.9-7.4-50.7-20.4-74.6-33c-12.9-6.8-25.9-13.7-39.3-19.7
						c-5.1-1.9-10.3-3.8-15.5-5.6c-26-9.2-51.7-12.5-80.9-10.5c-26.1,1.8-51.8,7.6-79.1,13.7c-8.9,2-18,4.1-27.3,6
						c-59.4,12.4-120.2,14.9-179,17.3c-8.2,0.3-16.6,0.7-25.1,1c-18.5,1.7-37,3.7-55.4,6.3c-17.4,2.4-37.4,5.7-58.5,9.3
						c-54,9.1-121.2,20.4-183.3,21.2c-34,0.5-63-2.1-88.7-7.9c-14.1-3.2-27.2-7.4-39-12.5c-12.5-5.4-23.8-12.1-33.6-19.7l-0.3-0.3
						l0.4,0.1C-134,709.1-71,712.7-7.6,712.7c62.3,0,125.1-3.5,186.9-7c24.4-1.4,49.6-2.8,74-3.9c3.4-0.2,6.8-0.3,10.1-0.5
						c19.2-1.8,38.3-3.3,57.1-4.8c30.1-2.4,61.2-4.8,91.8-8.4c22-2.6,44.5-7.5,68.4-12.7c46.3-10,94.2-20.4,137.7-12.9
						c17.9,3.1,35.2,9.4,52,17c9.5,3.6,18.8,7.2,27.9,10.8c41.5,16.2,80.6,31.6,126.9,35.6c65.8,5.7,122-11.9,181.5-30.5
						c8.3-2.6,16.9-5.3,25.5-7.9c34.2-10.4,69.9-15.3,104.5-20.1c30.1-4.1,61.2-8.4,91.2-16.3c6.7-1.8,14.6-4.4,22.9-7.3
						c28.1-9.6,63-21.5,85.6-9.1c4.9,2.7,9.1,6.5,12.4,11.3c3.6,5.2,6.3,11.6,8.1,19.2v0.2h-0.2c-62-16-126.9-6.2-189.6,3.3
						c-9.6,1.4-19.4,2.9-29.1,4.3c-39.1,5.5-69.9,19.3-102.5,33.9c-20.5,9.2-41.7,18.7-65.4,26.1
						C941.6,741.6,911.3,746.1,880.3,746.1z M673.1,680.7c12.4,5.7,24.6,12.2,36.7,18.5c23.9,12.6,48.6,25.6,74.5,33
						c64,18.2,128.3,18.3,185.9,0.3c23.7-7.4,44.9-16.9,65.4-26.1c32.6-14.6,63.4-28.4,102.5-33.9c9.6-1.4,19.5-2.8,29.1-4.3
						c62.7-9.5,127.5-19.2,189.5-3.3c-1.8-7.5-4.5-13.9-8.1-19c-3.3-4.8-7.5-8.6-12.4-11.3c-22.5-12.4-57.4-0.5-85.4,9.1
						c-8.3,2.8-16.2,5.5-22.9,7.3c-30,7.9-61.1,12.2-91.2,16.3c-34.5,4.8-70.2,9.7-104.5,20.1c-8.6,2.6-17.2,5.3-25.5,7.9
						c-51.8,16.2-101,31.6-156.3,31.6c-8.3,0-16.7-0.3-25.2-1.1c-46.3-4-85.5-19.3-127-35.6C690.1,687.2,681.7,683.9,673.1,680.7z
						 M-194.6,698.2c9.7,7.5,20.9,14.1,33.2,19.5c11.7,5.1,24.8,9.3,38.9,12.5c25.6,5.8,54.6,8.4,88.6,7.9
						c62.1-0.8,129.3-12.1,183.3-21.2c21.1-3.6,41.1-6.9,58.5-9.3c17.1-2.3,34.3-4.2,51.5-5.9c-2.1,0.1-4.1,0.2-6.2,0.3
						c-24.4,1.1-49.6,2.5-74,3.9C54.7,712.8-74.1,720-194.6,698.2z M586.6,660.1c-34.4,0-70.6,7.8-105.8,15.5
						c-23.9,5.2-46.5,10.1-68.5,12.7c-30.6,3.6-61.7,6.1-91.8,8.4c-17.5,1.4-35.3,2.8-53.1,4.4c7.1-0.3,14.1-0.6,21.1-0.9
						c58.8-2.4,119.6-4.8,179-17.2c9.3-2,18.5-4,27.3-6c27.3-6.1,53-11.9,79.1-13.7c29.2-2,55,1.4,81,10.5c4.2,1.5,8.4,3,12.6,4.6
						c-15.9-7-32.2-12.8-49.1-15.7C608.1,660.9,597.4,660.1,586.6,660.1z"/>
				</g>
				<g>
					<path d="M788.9,851.3c-20.2,0-41.4-1.4-63.3-4.2c-31.1-4-62.4-10.8-93.2-20c-29.5-8.9-56.8-19.6-81.2-31.8
						c-57.3-28.8-120.5-33.8-184.9-30.4c-16.5,4.8-32.3,9-48.3,12.3c-26.7,5.5-50.9,7.8-76.1,7.3c-15.8-0.3-31.8-0.5-47.7-0.6
						c-8.7,0.9-17.3,1.7-25.9,2.4c-8.8,0.7-25.3,3.1-46.3,6.1c-55.9,8-145.1,20.9-216.3,20.9c-58.4,0-104.8-8.6-110.8-35.6v-0.1h0.1
						c95.2,8.7,193.2,7.7,287.9,6.7c36.6-0.4,74-0.7,111.3-0.6c19.6-2.1,39.5-4.7,60.2-7.3c37.1-4.8,74.7-9.7,111.9-11.7
						c8.4-2.4,16.9-5,25.7-7.7c33.8-10.3,60.2-12.7,85.6-8c25.7,4.8,49.8,16.9,78.2,33.6c24,14.1,52.3,26.1,84,35.6
						c31.3,9.4,64.2,15.8,97.9,19.1c71.6,7,138.3-1.1,187.9-23c12.6-5.5,24.8-11.2,36.6-16.6c20.8-9.6,40.6-18.8,61-26.7
						c2.9-1.3,5.7-2.6,8.6-3.8c22.9-9.7,44.5-15.5,66.1-17.7c0.8-0.1,1.5-0.2,2.3-0.2c4.9-0.8,9.8-1.5,14.7-2.1
						c5-0.6,11.2-1.4,18.3-2.4c28.5-3.8,71.5-9.6,111-9.7c21.7-0.1,40,1.6,54.3,5c16.8,4,28.6,10.5,35.1,19.3l0.1,0.2h-0.2
						c-32.9,0.3-66.3-2.9-98.7-6c-44.2-4.2-89.8-8.5-134.6-4.2c-21.3,3.5-42.2,9-64.8,17.2c-4.1,1.5-8.1,3-12.1,4.6
						c-17.4,8-34.3,17.4-50.8,26.6c-21,11.7-42.7,23.8-66,33.3C873.4,844.5,833.5,851.3,788.9,851.3z M400.3,763.7
						c52.6,0,103.8,7.6,151.1,31.3c24,12.1,52.1,23.1,81.2,31.8c30.7,9.3,62,16,93.1,20c70.2,9.1,132.7,3.5,180.7-16.1
						c23.3-9.5,45-21.6,66-33.3c15.5-8.6,31.4-17.5,47.7-25.1c-19.3,7.7-38.1,16.4-57.8,25.5c-11.8,5.5-24,11.1-36.6,16.6
						c-49.6,21.8-116.4,30-188,23c-33.6-3.3-66.6-9.7-97.9-19.1c-31.7-9.5-60-21.5-84-35.6c-28.4-16.7-52.5-28.8-78.2-33.6
						c-25.4-4.8-51.8-2.3-85.5,8c-8.5,2.6-16.8,5.1-24.9,7.5C378.3,764,389.3,763.7,400.3,763.7z M-204.9,777.7
						c1.6,7.1,6.2,13.2,13.6,18.2c7,4.7,16.6,8.4,28.7,11.2c21.3,4.8,50.9,6.8,88,5.7c67.4-2,145.1-13.2,196.6-20.6
						c21-3,37.5-5.4,46.3-6.1c8-0.6,16-1.4,24.1-2.2c-36.7-0.2-73.5,0.2-109.4,0.6C-11.8,785.4-109.7,786.4-204.9,777.7z M196,783.7
						c15.4,0.1,30.7,0.3,46,0.6c25.2,0.5,49.4-1.8,76.1-7.3c15.7-3.2,31.3-7.4,47.5-12c-36.9,2-74.2,6.9-111.1,11.6
						C234.4,779.1,215,781.6,196,783.7z M1097.1,749.6c-21.3,2.3-42.6,8.1-65.2,17.6c-1.8,0.8-3.6,1.5-5.3,2.3
						c2.9-1.1,5.8-2.2,8.8-3.3C1056.9,758.6,1076.9,753.1,1097.1,749.6z M1139.8,747.3c31.9,0,63.8,3,95,6c32.3,3.1,65.7,6.2,98.5,6
						c-6.5-8.7-18.2-15.1-34.8-19c-14.3-3.4-32.5-5.1-54.2-5c-39.5,0.1-82.5,5.9-111,9.7c-7.2,1-13.4,1.8-18.3,2.4
						c-3.9,0.5-7.8,1-11.7,1.6C1115.4,747.8,1127.6,747.3,1139.8,747.3z"/>
				</g>
			</g>
		</g>
	</g>
</g>
</svg>
